<?xml version="1.0" encoding="utf-8"?>
<!-- Generator: Adobe Illustrator 17.1.0, SVG Export Plug-In . SVG Version: 6.00 Build 0)  -->
<!DOCTYPE svg PUBLIC "-//W3C//DTD SVG 1.1//EN" "http://www.w3.org/Graphics/SVG/1.1/DTD/svg11.dtd">
<svg version="1.1"
	 id="Layer_1" xmlns:svg="http://www.w3.org/2000/svg" xmlns:sodipodi="http://sodipodi.sourceforge.net/DTD/sodipodi-0.dtd" xmlns:cc="http://creativecommons.org/ns#" xmlns:dc="http://purl.org/dc/elements/1.1/" xmlns:rdf="http://www.w3.org/1999/02/22-rdf-syntax-ns#" xmlns:inkscape="http://www.inkscape.org/namespaces/inkscape" inkscape:version="0.48.4 r9939" sodipodi:docname="tintlogo-vertical.svg"
	 xmlns="http://www.w3.org/2000/svg" xmlns:xlink="http://www.w3.org/1999/xlink" x="0px" y="0px" viewBox="6 -167.5 600 600"
	 enable-background="new 6 -167.5 600 600" xml:space="preserve">
<sodipodi:namedview  pagecolor="#ffffff" bordercolor="#666666" inkscape:cy="433.00578" inkscape:zoom="0.84281416" objecttolerance="10" borderopacity="1" guidetolerance="10" showgrid="false" gridtolerance="10" inkscape:cx="205.82456" id="namedview43" inkscape:pageshadow="2" inkscape:window-width="1920" inkscape:window-x="-8" inkscape:window-maximized="1" inkscape:window-y="-8" inkscape:pageopacity="0" inkscape:current-layer="Layer_1" inkscape:window-height="1018">
	</sodipodi:namedview>
<path id="path3099-1-2" inkscape:connector-curvature="0" fill="#FF5349" d="M306-165C141.7-165,8.5-31.8,8.5,132.5
	C8.5,296.8,141.7,430,306,430s297.5-133.2,297.5-297.5C603.5-31.8,470.3-165,306-165z M167.8,13.9h276.3v3.3V77v16H351v184.8V294
	h-90.2v-10.5v-5.6V93h-93v-9.5v-22v-16V30.1V13.9z M183.8,30.1v15.5H428V30.1H183.8z M183.8,61.5V77H428V61.5H183.8z M276.9,93
	v184.8h21V93H276.9z M314,93v184.8h21V93H314z"/>
</svg>
